<svg width="31" height="30" viewBox="0 0 31 30" fill="none" xmlns="http://www.w3.org/2000/svg">
<path d="M28.8432 0H2.1558C1.24195 0 0.5 0.740466 0.5 1.6558V28.3432C0.5 29.2585 1.24195 30 2.1558 30H16.5235V18.3822H12.6142V13.854H16.5235V10.5147C16.5235 6.64049 18.8892 4.52974 22.346 4.52974C24.0033 4.52974 25.4244 4.65372 25.8389 4.70757V8.75716L23.4411 8.75815C21.5615 8.75815 21.199 9.65175 21.199 10.9623V13.8525H25.6833L25.0969 18.3803H21.1985V29.9985H28.8427C29.7576 29.9985 30.5 29.2561 30.5 28.3432V1.65481C30.4995 0.740466 29.7581 0 28.8432 0Z" fill="white"/>
</svg>
