<svg width="31" height="30" viewBox="0 0 31 30" fill="none" xmlns="http://www.w3.org/2000/svg">
<path fill-rule="evenodd" clip-rule="evenodd" d="M0.5 6C0.5 2.68629 3.18629 0 6.5 0H24.5C27.8137 0 30.5 2.68629 30.5 6V24C30.5 27.3137 27.8137 30 24.5 30H6.5C3.18629 30 0.5 27.3137 0.5 24V6ZM6.5 3C4.84314 3 3.5 4.34314 3.5 6V24C3.5 25.6569 4.84314 27 6.5 27H24.5C26.1569 27 27.5 25.6569 27.5 24V6C27.5 4.34314 26.1569 3 24.5 3H6.5ZM15.5 10.5C13.0147 10.5 11 12.5147 11 15C11 17.4853 13.0147 19.5 15.5 19.5C17.9853 19.5 20 17.4853 20 15C20 12.5147 17.9853 10.5 15.5 10.5ZM8 15C8 10.8579 11.3579 7.5 15.5 7.5C19.6421 7.5 23 10.8579 23 15C23 19.1421 19.6421 22.5 15.5 22.5C11.3579 22.5 8 19.1421 8 15ZM23.75 9C24.9926 9 26 7.99264 26 6.75C26 5.50736 24.9926 4.5 23.75 4.5C22.5074 4.5 21.5 5.50736 21.5 6.75C21.5 7.99264 22.5074 9 23.75 9Z" fill="white"/>
</svg>
