<svg width="31" height="30" viewBox="0 0 31 30" fill="none" xmlns="http://www.w3.org/2000/svg">
<path fill-rule="evenodd" clip-rule="evenodd" d="M7.31042 29.9999V9.75805H0.880138V29.9999L7.31042 29.9999ZM4.09596 6.99537C6.33762 6.99537 7.73401 5.43973 7.73401 3.49732C7.69162 1.51173 6.33762 0 4.13799 0C1.93801 6.142e-05 0.5 1.51179 0.5 3.49738C0.5 5.43979 1.89562 6.99543 4.05363 6.99543L4.09596 6.99537ZM10.8693 29.9999C10.8693 29.9999 10.9537 11.6573 10.8693 9.75811H17.3006V12.6936H17.2579C18.1036 11.3123 19.6271 9.28278 23.0959 9.28278C27.3279 9.28278 30.5 12.1758 30.5 18.3934V30H24.0698V19.1712C24.0698 16.4502 23.1394 14.5935 20.8116 14.5935C19.0355 14.5935 17.9769 15.8452 17.5121 17.0552C17.342 17.4859 17.3006 18.0908 17.3006 18.6958V29.9999H10.8693Z" fill="white"/>
</svg>
