<svg width="37" height="30" viewBox="0 0 37 30" fill="none" xmlns="http://www.w3.org/2000/svg">
<path d="M32.8145 7.4715C32.8288 7.79666 32.836 8.12334 32.836 8.45146C32.836 18.4599 25.4062 30 11.8225 30C7.65121 30 3.76847 28.7461 0.5 26.5971C1.07854 26.6674 1.66567 26.7033 2.2621 26.7033C5.7227 26.7033 8.90684 25.4926 11.4354 23.4608C8.20262 23.4001 5.47556 21.2102 4.53561 18.2014C4.98705 18.29 5.44921 18.3376 5.92559 18.3376C6.5984 18.3376 7.25119 18.2447 7.87122 18.0718C4.49277 17.3759 1.94635 14.3152 1.94635 10.6457C1.94635 10.6135 1.94635 10.582 1.94712 10.5505C2.9428 11.1174 4.08134 11.458 5.29267 11.4975C3.31062 10.1397 2.00707 7.82151 2.00707 5.19358C2.00707 3.80568 2.3706 2.5049 3.00698 1.38646C6.64975 5.96845 12.0909 8.98308 18.2293 9.2995C18.1036 8.74505 18.0378 8.16719 18.0378 7.57322C18.0378 3.39109 21.3449 0 25.4233 0C27.549 0 29.4674 0.919923 30.8145 2.39134C32.4974 2.05224 34.0773 1.42164 35.5043 0.553659C34.9529 2.32249 33.7829 3.80633 32.2573 4.74381C33.7515 4.56068 35.1758 4.15352 36.5 3.55146C35.5101 5.06983 34.2574 6.40356 32.8145 7.4715Z" fill="white"/>
</svg>
